<?xml version="1.0" encoding="UTF-8"?>
<!--Generator: Apple Native CoreSVG 341-->
<!DOCTYPE svg
PUBLIC "-//W3C//DTD SVG 1.1//EN"
       "http://www.w3.org/Graphics/SVG/1.1/DTD/svg11.dtd">
<svg version="1.1" xmlns="http://www.w3.org/2000/svg" xmlns:xlink="http://www.w3.org/1999/xlink" viewBox="0 0 307.555 311.498">
 <g>
  <rect height="311.498" opacity="0" width="307.555" x="0" y="0"/>
  <path d="M233.425 33.1309L74.1951 33.1309C74.9796 26.1772 79.8867 21.9814 87.4043 21.9814L220.181 21.9814C227.671 21.9814 232.631 26.1772 233.425 33.1309Z" fill="white" fill-opacity="0.85"/>
  <path d="M257.929 64.7631C255.188 64.4103 252.313 64.2588 249.344 64.2588L58.2109 64.2588C55.2525 64.2588 52.3875 64.4076 49.6574 64.7543C50.9007 56.7553 56.6429 52.1895 65.584 52.1895L241.971 52.1895C250.942 52.1895 256.688 56.7585 257.929 64.7631Z" fill="white" fill-opacity="0.85"/>
  <path d="M40.1113 289.52L267.443 289.52C278.881 289.52 285.647 282.82 285.647 271.518L285.647 104.572C285.647 93.3672 278.881 86.5401 267.443 86.5401L40.1113 86.5401C28.6738 86.5401 21.9746 93.3672 21.9746 104.572L21.9746 271.518C21.9746 282.82 28.6738 289.52 40.1113 289.52ZM39.1621 126.971C35.8115 126.971 33.6328 124.597 33.6328 121.667L33.6328 105.479C33.6328 101.276 36.0606 98.7442 40.2393 98.7442L58.3301 98.7442C61.4922 98.7442 63.6641 100.862 63.6641 104.273L63.6641 121.667C63.6641 124.597 61.4922 126.971 58.3301 126.971ZM39.1621 164.706C35.8115 164.706 33.6328 162.265 33.6328 159.47L33.6328 142.423C33.6328 139.147 35.5557 136.894 39.1621 136.894L58.3301 136.894C61.4922 136.894 63.6641 139.147 63.6641 142.423L63.6641 159.47C63.6641 162.265 61.4922 164.706 58.3301 164.706ZM39.1621 201.939C35.8115 201.939 33.6328 199.498 33.6328 196.531L33.6328 179.852C33.6328 176.238 35.5557 174.12 39.1621 174.12L58.3301 174.12C61.4922 174.12 63.6641 176.238 63.6641 179.852L63.6641 196.531C63.6641 199.498 61.4922 201.939 58.3301 201.939ZM39.1621 239.166C35.8115 239.166 33.6328 236.822 33.6328 233.96L33.6328 217.018C33.6328 213.667 35.5557 211.421 39.1621 211.421L58.3301 211.421C61.4922 211.421 63.6641 213.667 63.6641 217.018L63.6641 233.96C63.6641 236.822 61.4922 239.166 58.3301 239.166ZM40.2393 277.346C36.0606 277.346 33.6328 274.716 33.6328 270.709L33.6328 254.46C33.6328 251.426 35.8115 249.089 39.1621 249.089L58.3301 249.089C61.4922 249.089 63.6641 251.426 63.6641 254.46L63.6641 271.786C63.6641 275.093 61.4922 277.346 58.3301 277.346ZM79.9287 181.939C76.7129 181.939 74.8809 180.182 74.8809 176.764L74.8809 103.792C74.8809 100.569 76.7129 98.7442 79.9287 98.7442L227.656 98.7442C230.811 98.7442 232.674 100.569 232.674 103.792L232.674 176.764C232.674 180.182 230.811 181.939 227.656 181.939ZM79.9287 277.346C76.7129 277.346 74.8809 275.514 74.8809 272.23L74.8809 199.4C74.8809 196.08 76.7129 194.315 79.9287 194.315L227.656 194.315C230.811 194.315 232.674 196.08 232.674 199.4L232.674 272.23C232.674 275.514 230.811 277.346 227.656 277.346ZM249.255 126.971C246.069 126.971 243.891 124.597 243.891 121.667L243.891 104.273C243.891 100.862 246.069 98.7442 249.255 98.7442L267.218 98.7442C271.524 98.7442 274.02 101.276 274.02 105.479L274.02 121.667C274.02 124.597 271.713 126.971 268.423 126.971ZM249.255 164.706C246.069 164.706 243.891 162.265 243.891 159.47L243.891 142.423C243.891 139.147 246.069 136.894 249.255 136.894L268.423 136.894C271.871 136.894 274.02 139.147 274.02 142.423L274.02 159.47C274.02 162.265 271.713 164.706 268.423 164.706ZM249.255 201.939C246.069 201.939 243.891 199.498 243.891 196.531L243.891 179.852C243.891 176.238 246.069 174.12 249.255 174.12L268.423 174.12C271.871 174.12 274.02 176.238 274.02 179.852L274.02 196.531C274.02 199.498 271.713 201.939 268.423 201.939ZM249.255 239.166C246.069 239.166 243.891 236.822 243.891 233.96L243.891 217.018C243.891 213.667 246.069 211.421 249.255 211.421L268.423 211.421C271.871 211.421 274.02 213.667 274.02 217.018L274.02 233.96C274.02 236.822 271.713 239.166 268.423 239.166ZM249.255 277.346C246.069 277.346 243.891 275.093 243.891 271.786L243.891 254.46C243.891 251.426 246.069 249.089 249.255 249.089L268.423 249.089C271.713 249.089 274.02 251.426 274.02 254.46L274.02 270.709C274.02 274.716 271.524 277.346 267.218 277.346Z" fill="white" fill-opacity="0.85"/>
 </g>
</svg>
